<?xml version="1.0" encoding="UTF-8" standalone="no"?>
<svg width="754px" height="120px" viewBox="0 0 754 120" version="1.1" xmlns="http://www.w3.org/2000/svg" xmlns:xlink="http://www.w3.org/1999/xlink">
    <!-- Generator: Sketch 41.2 (35397) - http://www.bohemiancoding.com/sketch -->
    <title>logo</title>
    <desc>Created with Sketch.</desc>
    <defs></defs>
    <g id="Page-1" stroke="none" stroke-width="1" fill="none" fill-rule="evenodd">
        <g id="Road-to-Hire-White-Full" transform="translate(-123.000000, -440.000000)">
            <g id="logo" transform="translate(123.000000, 440.000000)">
                <path d="M123.807556,78.2086057 C123.807556,85.62372 125.108245,91.5688914 127.709623,96.0503486 C130.314113,100.531806 134.518014,102.777206 140.321328,102.777206 C145.978392,102.777206 150.12006,100.519349 152.746331,96.0160914 C155.375715,91.50972 156.688851,85.5707771 156.688851,78.2086057 L156.688851,76.6327771 C156.688851,69.4200914 155.363268,63.5309771 152.708991,58.9747771 C150.054714,54.4216914 145.878818,52.13892 140.175078,52.13892 C134.468227,52.13892 130.314113,54.4216914 127.709623,58.9747771 C125.108245,63.5309771 123.807556,69.4200914 123.807556,76.6327771 L123.807556,78.2086057 Z M101.891878,76.6327771 C101.891878,64.5119771 105.277404,54.58052 112.064014,46.8446343 C118.841288,39.1056343 128.210606,35.2376914 140.175078,35.2376914 C152.183114,35.2376914 161.580437,39.0931771 168.360824,46.8072629 C175.14121,54.5213486 178.529847,64.4590343 178.529847,76.6327771 L178.529847,78.2086057 C178.529847,90.4290629 175.14121,100.385434 168.360824,108.071491 C161.580437,115.763777 152.232902,119.603691 140.321328,119.603691 C128.263505,119.603691 118.841288,115.763777 112.064014,108.071491 C105.277404,100.385434 101.891878,90.4290629 101.891878,78.2086057 L101.891878,76.6327771 Z" id="Fill-1" fill="#152E48"></path>
                <path d="M217.716062,103.37546 C221.020683,103.37546 224.02347,102.662289 226.724422,101.235946 C229.425375,99.8064886 231.528882,98.0188886 233.031831,95.8638029 L233.031831,83.4658314 L221.842171,83.4658314 C217.190185,83.4658314 213.661521,84.5558314 211.262403,86.7358314 C208.857062,88.9158314 207.655947,91.5318314 207.655947,94.5869457 C207.655947,97.3430886 208.545892,99.4981743 210.322671,101.045974 C212.096338,102.603117 214.560801,103.37546 217.716062,103.37546 L217.716062,103.37546 Z M236.706744,118.02506 C236.109299,116.67346 235.583422,115.284489 235.129114,113.855031 C234.68103,112.428689 234.329408,110.989889 234.077361,109.538631 C231.475983,112.540803 228.314499,114.97306 224.583575,116.822946 C220.855763,118.675946 216.589627,119.604003 211.78828,119.604003 C203.831673,119.604003 197.508706,117.439574 192.831826,113.107603 C188.151835,108.772517 185.811839,102.877174 185.811839,95.4122314 C185.811839,87.8009171 188.867525,81.9118029 194.972673,77.7573457 C201.077821,73.5997743 210.033283,71.5225457 221.842171,71.5225457 L233.031831,71.5225457 L233.031831,63.5593171 C233.031831,59.6508886 231.902285,56.6238029 229.649417,54.4687171 C227.399661,52.3167457 224.070145,51.2392029 219.667095,51.2392029 C217.165291,51.2392029 214.968434,51.6316029 212.989395,52.10186 C208.318739,53.2105457 198.977426,58.0812886 198.977426,58.0812886 L190.392256,44.8518029 C194.393898,42.1486029 198.986761,39.8689457 204.167736,38.0159457 C209.345598,36.1629457 214.990216,35.2380029 221.092252,35.2380029 C231.152366,35.2380029 239.320569,37.7045171 245.603084,42.6375457 C251.879376,47.5705743 255.025301,54.5932886 255.025301,63.7088029 L255.025301,97.2901457 C255.025301,98.5452029 255.034636,99.7224029 255.059529,100.821746 C255.084423,101.924203 255.17155,102.976831 255.324023,103.976517 L262.004835,104.876546 L262.004835,118.02506 L236.706744,118.02506 Z" id="Fill-3" fill="#152E48"></path>
                <path d="M288.581523,79.6380629 C288.581523,86.7479771 289.770191,92.3443486 292.147527,96.4302914 C294.524863,100.510006 298.414483,102.549863 303.8195,102.549863 C307.021435,102.549863 309.80018,101.898977 312.152622,100.597206 C314.505065,99.2954343 316.431205,97.4144057 317.931042,94.9634629 L317.931042,60.4789771 C316.431205,57.8754343 314.517512,55.8573771 312.189963,54.4310343 C309.859302,53.0015771 307.121009,52.29152 303.971973,52.29152 C298.616743,52.29152 294.711564,54.6708343 292.259548,59.4263486 C289.807531,64.1880914 288.581523,70.3948629 288.581523,78.05912 L288.581523,79.6380629 Z M319.20995,108.108863 C316.655247,111.864691 313.640013,114.720491 310.164248,116.673149 C306.685372,118.62892 302.717959,119.603691 298.265122,119.603691 C288.254795,119.603691 280.484889,115.94752 274.958516,108.635177 C269.42592,101.322834 266.662734,91.6529771 266.662734,79.6380629 L266.662734,78.05912 C266.662734,65.24072 269.441479,54.8950629 274.992745,47.0314914 C280.550234,39.16792 288.357481,35.2376914 298.414483,35.2376914 C302.465912,35.2376914 306.122155,36.1252629 309.373878,37.90352 C312.628712,39.6817771 315.479026,42.19812 317.931042,45.4525486 L317.931042,16.3059486 L306.218617,14.0480914 L306.218617,0.827948571 L317.931042,0.827948571 L339.849831,0.827948571 L339.849831,102.624606 L350.361142,104.876234 L350.361142,118.024749 L320.859149,118.024749 L319.20995,108.108863 Z" id="Fill-5" fill="#152E48"></path>
                <polygon id="Fill-12" fill="#152E48" points="457.903234 21.8627686 457.903234 8.64262571 503.165969 8.64262571 503.165969 21.8627686 491.456655 24.1175114 491.456655 55.6714543 536.044152 55.6714543 536.044152 24.1175114 524.334839 21.8627686 524.334839 8.64262571 536.044152 8.64262571 557.88826 8.64262571 569.597574 8.64262571 569.597574 21.8627686 557.88826 24.1175114 557.88826 102.62554 569.597574 104.877169 569.597574 118.025683 524.334839 118.025683 524.334839 104.877169 536.044152 102.62554 536.044152 72.5726829 491.456655 72.5726829 491.456655 102.62554 503.165969 104.877169 503.165969 118.025683 457.903234 118.025683 457.903234 104.877169 469.534755 102.62554 469.534755 24.1175114"></polygon>
                <path d="M585.446066,17.2782286 L607.361743,17.2782286 L607.361743,0.828571429 L585.446066,0.828571429 L585.446066,17.2782286 Z M574.860075,104.876857 L585.446066,102.625229 L585.446066,52.2142857 L573.733641,49.9626571 L573.733641,36.7362857 L607.361743,36.7362857 L607.361743,102.625229 L617.86683,104.876857 L617.86683,118.025371 L574.860075,118.025371 L574.860075,104.876857 Z" id="Fill-14" fill="#152E48"></path>
                <path d="M623.646494,104.877791 L634.160916,102.623049 L634.160916,52.2121057 L622.526284,49.9635914 L622.526284,36.73722 L654.576756,36.73722 L655.553829,48.6088771 C657.448852,44.4014771 659.90398,41.1221343 662.909879,38.7677343 C665.912666,36.4133343 669.385319,35.2361343 673.346508,35.2361343 C674.494724,35.2361343 675.702062,35.3233343 676.987193,35.5008486 C678.256765,35.6721343 679.320965,35.8901343 680.179793,36.1392771 L677.846021,56.1205343 L668.840772,55.8963057 C665.635725,55.8963057 662.990783,56.5222771 660.887276,57.77422 C658.783769,59.0261629 657.181246,60.8075343 656.079705,63.1089914 L656.079705,102.623049 L666.591015,104.877791 L666.591015,118.026306 L623.646494,118.026306 L623.646494,104.877791 Z" id="Fill-16" fill="#152E48"></path>
                <path d="M719.136676,52.1401657 C715.085247,52.1401657 711.8802,53.6941943 709.533981,56.7991371 C707.175315,59.9009657 705.725264,63.9837943 705.177606,69.0413943 L705.401648,69.4182229 L732.274257,69.4182229 L732.274257,67.4624514 C732.274257,62.8065943 731.185164,59.0881371 729.006976,56.3101943 C726.835012,53.5291371 723.545949,52.1401657 719.136676,52.1401657 M721.090821,119.604937 C709.378396,119.604937 700.021525,115.849109 693.017097,108.331223 C686.009556,100.819566 682.505786,91.2805086 682.505786,79.7109371 L682.505786,76.7056514 C682.505786,64.63468 685.819743,54.69388 692.45388,46.8801371 C699.088016,39.0663943 707.984356,35.1859943 719.136676,35.2358229 C730.092958,35.2358229 738.60656,38.54008 744.658809,45.1517086 C750.71417,51.7633371 753.744962,60.7044514 753.744962,71.9750514 L753.744962,83.9214514 L705.252287,83.9214514 L705.096702,84.3667943 C705.501222,89.72648 707.290448,94.1363086 710.470601,97.5900514 C713.647643,101.046909 717.963566,102.775337 723.41837,102.775337 C728.269504,102.775337 732.299151,102.286394 735.50731,101.311623 C738.703022,100.333737 742.209904,98.79528 746.012397,96.6900229 L751.940178,110.212251 C748.58577,112.868737 744.248065,115.092337 738.914617,116.898623 C733.590505,118.704909 727.647165,119.604937 721.090821,119.604937" id="Fill-17" fill="#152E48"></path>
                <path d="M63.1870435,55.0202571 C59.8046296,57.8418 55.0872979,59.2494571 49.041272,59.2494571 L40.2787351,59.2494571 L40.2787351,27.7079714 L52.8873286,27.7079714 C57.5984369,27.7079714 61.3418076,29.1218571 64.1112173,31.9402857 C66.8775153,34.7618286 68.2591085,38.4802857 68.2591085,43.0956571 C68.2591085,48.228 66.5663457,52.2018286 63.1870435,55.0202571 L63.1870435,55.0202571 Z M91.31989,101.099229 L81.0170635,80.0217429 C79.2745135,76.3282 77.1243314,72.9990286 74.5634053,70.0217714 C86.1420273,64.2759143 91.9328942,54.5842571 91.9328942,40.9436857 C91.9328942,30.5824571 88.4757996,22.7656 81.5553869,17.4775429 C74.6411977,12.1957143 64.7740086,9.5548 51.9662665,9.5548 L40.2787351,9.5548 L4.92052966,10.3209143 L4.92052966,23.0957143 L16.4524763,27.7079714 L16.4524763,51.0775714 L37.1732621,64.8209143 C38.4832863,65.6866857 38.4832863,67.7514571 37.1732621,68.6203429 L16.4524763,82.3605714 L16.4524763,100.794029 L4.92052966,104.640171 L4.92052966,118.025371 L51.3501506,118.025371 L51.3501506,104.640171 L40.2787351,100.794029 L40.2787351,75.4063714 L45.6619697,75.4063714 C49.5547019,75.4063714 52.2961063,76.2285429 53.8861831,77.8697714 C55.4731483,79.5141143 57.6544474,83.4100857 60.4176338,89.5608 L73.3342852,118.025371 L101.772078,118.025371 L101.772078,104.640171 L91.31989,101.099229 Z" id="Fill-18" fill="#152E48"></path>
                <path d="M376.015833,44.0642 L376.015833,60.1588286 L391.985059,60.1588286 L391.985059,68.4241429 L376.015833,68.4241429 L376.015833,103.808657 C376.015833,108.293229 377.848622,110.5324 381.520424,110.5324 C383.869755,110.5324 386.732515,109.613686 390.111818,107.776257 L393.083488,113.615543 C388.089215,117.293514 382.954916,119.130943 377.665032,119.130943 C373.924773,119.130943 370.875311,117.897686 368.52598,115.434286 C366.173538,112.974 365.000428,108.878714 365.000428,103.148429 L365.000428,68.4241429 L353.985023,68.4241429 L353.985023,61.2612857 L365.000428,60.1588286 L365.000428,46.2691143 L376.015833,44.0642 Z" id="Fill-8" fill="#22C2C6"></path>
                <path d="M422.817613,67.3238657 C412.1725,67.3238657 406.848387,74.4867229 406.848387,88.8155514 C406.848387,103.147494 411.985798,110.310351 422.266843,110.310351 C427.625184,110.310351 431.536586,108.476037 433.997938,104.798066 C436.456178,101.126323 437.685298,95.6140371 437.685298,88.2674371 C437.685298,74.3060943 432.731478,67.3238657 422.817613,67.3238657 M395.285324,89.7000086 C395.285324,84.9974371 395.960562,80.7152943 397.323485,76.8566943 C398.680185,73.0012086 400.606325,69.7125229 403.105017,66.9937514 C405.600597,64.27498 408.556709,62.1790657 411.97024,60.7091229 C415.380659,59.2422943 419.1427,58.5042086 423.262586,58.5042086 C431.480576,58.5042086 437.865777,61.11398 442.4213,66.3304086 C446.976823,71.5468371 449.248362,78.7875514 449.248362,88.0432086 C449.248362,92.5994086 448.588682,96.7694371 447.266211,100.556409 C445.946852,104.340266 444.092281,107.610266 441.70561,110.366409 C439.318939,113.122551 436.418838,115.271409 433.005307,116.816094 C429.591776,118.357666 425.792395,119.130009 421.604051,119.130009 C413.2367,119.130009 406.755037,116.632351 402.168396,111.633923 C397.578644,106.635494 395.285324,99.3262657 395.285324,89.7000086" id="Fill-10" fill="#22C2C6"></path>
                <path d="M25.2588881,68.2606429 C26.4102157,67.5537 26.4102157,65.8844429 25.2588881,65.1806143 L8.55530215,54.9533 L2.88890313,51.4808714 C1.68467665,50.7459 0.141275266,51.6116714 0.141275266,53.0224429 L0.141275266,80.4188143 C0.141275266,81.8264714 1.68467665,82.6953571 2.88890313,81.9572714 L8.55530215,78.4879571 L25.2588881,68.2606429 Z" id="Fill-19" fill="#22C2C6"></path>
            </g>
        </g>
    </g>
</svg>